<?xml version="1.0" encoding="UTF-8"?>
<svg id="Capa_2" data-name="Capa 2" xmlns="http://www.w3.org/2000/svg" viewBox="0 0 190.36 31.06">
  <defs>
    <style>
      .cls-1 {
        fill: #fff;
      }
    </style>
  </defs>
  <g id="Layer_1" data-name="Layer 1">
    <g>
      <path class="cls-1" d="M124.75,16.12l-.93,14.61h8.79l.94-14.84c.42-6.74-4.35-7.24-7.5-7.56-.21-.02-1.89-.16-4.18-.16-.59,0-1.23,0-1.89,.03-5.47,.19-12.19,.96-12.26,.97l-.16,.02-1.38,21.53h8.82l1.07-17.48s3.58-.46,5.6-.34c2.02,.12,3.22,.75,3.07,3.09"/>
      <path class="cls-1" d="M25.99,0h-.19V.19s-.83,10.51-.83,10.51H11.18l.68-8.75c.02-1.88-1.57-1.95-2.36-1.95H2.38V.19S.02,30.41,.02,30.41l-.02,.22H9.63l.02-.19,1.04-13.34h13.79l-1.03,13.31-.02,.22h9.6v-.19S35.38,.22,35.38,.22l.02-.22h-9.41Z"/>
      <polygon class="cls-1" points="38.56 8.34 38.37 8.34 38.36 8.53 36.66 30.63 36.64 30.63 36.87 30.63 45.88 30.63 46.07 30.63 46.09 30.63 47.78 8.57 47.79 8.34 47.57 8.34 38.56 8.34"/>
      <path class="cls-1" d="M46.35,0h-7.3l-.02,.22-.41,5.4-.02,.22h9.42v-.19s.24-3.14,.28-3.7c.08-1.31-.44-1.95-1.96-1.95Z"/>
      <path class="cls-1" d="M67,17.39l-3.37-1.41c-2.36-.95-4.14-1.64-3.83-2.62,.17-.55,1.26-.91,4.49-.91,2.91,0,6.15,.35,9.9,1.06l.22,.04,.02-.21,.41-4.22,.02-.19-.19-.04c-1.46-.28-5.38-.95-10.22-1.05-.33,0-.67,0-.99,0-1.86,0-3.61,.11-5.2,.33-3,.42-8.08,1.74-8.34,5.93-.26,4.29,4.87,6.17,8.01,7.47l2.6,1.03c2.96,1.19,4.37,1.62,4.31,2.5-.06,.83-1.18,1.04-3.85,1.04-.33,0-.68,0-1.05-.01-3.37-.07-8.13-.77-9.91-1.08l-.22-.04v.22s-.3,4.56-.3,4.56v.19s.18,.03,.18,.03c.03,0,3.57,.56,11.11,.77,.44,.01,.89,.02,1.33,.02,5.48,0,12.17-.86,12.9-5.42,.67-4.19-3.73-6.05-8.03-7.97Z"/>
      <path class="cls-1" d="M104.38,21.27c1.89-10.73-7.63-12.82-9.86-13.16-.82-.11-1.71-.18-2.67-.2h-.11c-9.46,.18-13.19,5.03-14.64,8.58-.11,.27-.46,1.23-.62,2.38-.02,.15-.03,.3-.05,.47,0,.07-.01,.14-.02,.22-.21,3.29,.7,8.81,8.65,10.71,.44,.1,.89,.19,1.37,.27,1.64,.25,2.92,.52,6.09,.52,5.4,0,8.86-.79,10.34-1.22,.16-.99,.48-3.03,.72-4.59-.73,.16-5.13,1.1-9.92,1.1-.15,0-.3,0-.44,0-6.67-.23-8-3.5-8.01-5h0s0-.03,0-.07h19.16Zm-18.78-4.21c.42-2.35,2.23-4.73,6.07-4.75,5.6,.05,5.23,4.75,5.23,4.75h-11.3Z"/>
      <path class="cls-1" d="M152.73,17.39l-3.37-1.41c-2.36-.95-4.14-1.64-3.83-2.62,.17-.55,1.26-.91,4.49-.91,2.91,0,6.15,.35,9.9,1.06l.21,.04,.02-.21,.41-4.22,.02-.19-.19-.04c-1.46-.28-5.38-.95-10.22-1.05-.33,0-.67,0-.99,0-1.86,0-3.61,.11-5.2,.33-3.01,.42-8.08,1.74-8.34,5.93-.26,4.29,4.87,6.17,8.01,7.47l2.6,1.03c2.96,1.19,4.37,1.62,4.31,2.5-.05,.83-1.18,1.04-3.85,1.04-.33,0-.68,0-1.05-.01-3.37-.07-8.13-.77-9.91-1.08l-.22-.04-.02,.22-.29,4.56v.19s.18,.03,.18,.03c.03,0,3.58,.56,11.11,.77,.44,.01,.89,.02,1.33,.02,5.48,0,12.17-.86,12.9-5.42,.67-4.19-3.73-6.05-8.02-7.97Z"/>
      <path class="cls-1" d="M190.11,21.27c1.89-10.73-7.63-12.82-9.85-13.16-.82-.11-1.71-.18-2.67-.2h-.11c-9.46,.18-13.19,5.03-14.64,8.58-.11,.27-.46,1.23-.62,2.38-.02,.15-.03,.3-.05,.47,0,.07-.01,.14-.02,.22-.21,3.29,.7,8.81,8.65,10.71,.43,.1,.89,.19,1.37,.27,1.64,.25,2.92,.52,6.09,.52,5.4,0,8.86-.79,10.34-1.22,.16-.99,.48-3.03,.72-4.59-.73,.16-5.13,1.1-9.92,1.1-.15,0-.3,0-.44,0-6.67-.23-8-3.5-8.01-5h0s0-.03,0-.07h19.15Zm-18.78-4.21c.42-2.35,2.23-4.73,6.07-4.75,5.6,.05,5.23,4.75,5.23,4.75h-11.3Z"/>
    </g>
  </g>
</svg>