<?xml version="1.0" encoding="UTF-8"?>
<svg id="Capa_2" data-name="Capa 2" xmlns="http://www.w3.org/2000/svg" viewBox="0 0 75.69 12.35">
  <defs>
    <style>
      .cls-1 {
        fill: #00b2ab;
      }
    </style>
  </defs>
  <g id="Layer_1" data-name="Layer 1">
    <g>
      <path class="cls-1" d="M49.6,6.41l-.37,5.81h3.49l.38-5.9c.17-2.68-1.73-2.88-2.98-3.01-.08,0-.75-.06-1.66-.06-.24,0-.49,0-.75,.01-2.17,.07-4.85,.38-4.87,.39h-.06s-.55,8.57-.55,8.57h3.51l.43-6.95s1.42-.18,2.23-.14c.8,.05,1.28,.3,1.22,1.23"/>
      <path class="cls-1" d="M10.33,0h-.08V.08s-.33,4.18-.33,4.18H4.45l.27-3.48c0-.75-.62-.78-.94-.78H.95V.08S0,12.09,0,12.09v.09s.08,0,.08,0H3.83v-.08s.42-5.31,.42-5.31h5.48l-.41,5.29v.09s.08,0,.08,0h3.73v-.08S14.07,.09,14.07,.09v-.09s-.08,0-.08,0h-3.65Z"/>
      <polygon class="cls-1" points="15.33 3.32 15.26 3.32 15.25 3.39 14.58 12.18 14.57 12.18 14.66 12.18 18.24 12.18 18.32 12.18 18.33 12.18 19 3.41 19 3.32 18.92 3.32 15.33 3.32"/>
      <path class="cls-1" d="M18.43,0h-2.9V.09s-.17,2.15-.17,2.15v.09s.08,0,.08,0h3.66v-.08s.1-1.25,.11-1.47c.03-.52-.18-.78-.78-.78Z"/>
      <path class="cls-1" d="M26.64,6.92l-1.34-.56c-.94-.38-1.65-.65-1.52-1.04,.07-.22,.5-.36,1.79-.36,1.16,0,2.45,.14,3.94,.42l.09,.02v-.08s.17-1.68,.17-1.68v-.07s-.07-.01-.07-.01c-.58-.11-2.14-.38-4.07-.42-.13,0-.26,0-.39,0-.74,0-1.44,.04-2.07,.13-1.19,.17-3.21,.69-3.31,2.36-.1,1.71,1.94,2.45,3.18,2.97l1.03,.41c1.18,.47,1.74,.64,1.71,.99-.02,.33-.47,.41-1.53,.41-.13,0-.27,0-.42,0-1.34-.03-3.23-.31-3.94-.43l-.09-.02v.09s-.12,1.81-.12,1.81v.07s.07,.01,.07,.01c.01,0,1.42,.22,4.42,.31,.18,0,.35,0,.53,0,2.18,0,4.84-.34,5.13-2.16,.27-1.66-1.48-2.41-3.19-3.17Z"/>
      <path class="cls-1" d="M41.5,8.46c.75-4.27-3.03-5.1-3.92-5.23-.33-.04-.68-.07-1.06-.08h-.04c-3.76,.07-5.24,2-5.82,3.41-.04,.11-.18,.49-.24,.95,0,.06-.01,.12-.02,.19,0,.03,0,.06,0,.09-.08,1.31,.28,3.5,3.44,4.26,.17,.04,.35,.08,.54,.11,.65,.1,1.16,.21,2.42,.21,2.15,0,3.52-.32,4.11-.49,.06-.4,.19-1.2,.29-1.83-.29,.06-2.04,.44-3.94,.44-.06,0-.12,0-.18,0-2.65-.09-3.18-1.39-3.18-1.99h0s0-.01,0-.03h7.62Zm-7.47-1.67c.17-.93,.89-1.88,2.42-1.89,2.23,.02,2.08,1.89,2.08,1.89h-4.49Z"/>
      <path class="cls-1" d="M60.73,6.92l-1.34-.56c-.94-.38-1.65-.65-1.52-1.04,.07-.22,.5-.36,1.79-.36,1.16,0,2.45,.14,3.94,.42l.09,.02v-.08s.17-1.68,.17-1.68v-.07s-.07-.01-.07-.01c-.58-.11-2.14-.38-4.07-.42-.13,0-.27,0-.39,0-.74,0-1.44,.04-2.07,.13-1.2,.17-3.21,.69-3.31,2.36-.1,1.71,1.94,2.45,3.18,2.97l1.03,.41c1.18,.47,1.74,.64,1.71,.99-.02,.33-.47,.41-1.53,.41-.13,0-.27,0-.42,0-1.34-.03-3.23-.31-3.94-.43l-.09-.02v.09s-.12,1.81-.12,1.81v.07s.07,.01,.07,.01c.01,0,1.42,.22,4.42,.31,.18,0,.35,0,.53,0,2.18,0,4.84-.34,5.13-2.16,.27-1.66-1.48-2.41-3.19-3.17Z"/>
      <path class="cls-1" d="M75.59,8.46c.75-4.27-3.03-5.1-3.92-5.23-.33-.04-.68-.07-1.06-.08h-.04c-3.76,.07-5.24,2-5.82,3.41-.04,.11-.18,.49-.25,.95,0,.06-.01,.12-.02,.19,0,.03,0,.06,0,.09-.08,1.31,.28,3.5,3.44,4.26,.17,.04,.35,.08,.54,.11,.65,.1,1.16,.21,2.42,.21,2.15,0,3.52-.32,4.11-.49,.06-.4,.19-1.2,.29-1.83-.29,.06-2.04,.44-3.94,.44-.06,0-.12,0-.18,0-2.65-.09-3.18-1.39-3.18-1.99h0s0-.01,0-.03h7.62Zm-7.47-1.67c.17-.93,.89-1.88,2.41-1.89,2.23,.02,2.08,1.89,2.08,1.89h-4.49Z"/>
    </g>
  </g>
</svg>