<?xml version="1.0" encoding="UTF-8"?>
<svg id="Capa_2" data-name="Capa 2" xmlns="http://www.w3.org/2000/svg" viewBox="0 0 31.63 31.63">
  <defs>
    <style>
      .cls-1 {
        fill: #a4a6a9;
        opacity: .1;
      }

      .cls-2 {
        fill: #171717;
      }
    </style>
  </defs>
  <g id="Layer_1" data-name="Layer 1">
    <circle class="cls-1" cx="15.82" cy="15.82" r="15.82"/>
    <g>
      <path class="cls-2" d="M19.96,10.78c-.51,0-.92,.41-.92,.92s.41,.92,.92,.92,.92-.41,.92-.92-.41-.92-.92-.92Z"/>
      <path class="cls-2" d="M15.88,11.96c-2.13,0-3.86,1.73-3.86,3.86s1.73,3.86,3.86,3.86,3.86-1.73,3.86-3.86-1.73-3.86-3.86-3.86Zm0,6.33c-1.36,0-2.47-1.11-2.47-2.47s1.11-2.47,2.47-2.47,2.47,1.11,2.47,2.47-1.11,2.47-2.47,2.47Z"/>
      <path class="cls-2" d="M18.94,23.65h-6.26c-2.6,0-4.71-2.11-4.71-4.71v-6.26c0-2.6,2.11-4.71,4.71-4.71h6.26c2.6,0,4.71,2.11,4.71,4.71v6.26c0,2.6-2.11,4.71-4.71,4.71Zm-6.26-14.2c-1.78,0-3.23,1.45-3.23,3.23v6.26c0,1.78,1.45,3.23,3.23,3.23h6.26c1.78,0,3.23-1.45,3.23-3.23v-6.26c0-1.78-1.45-3.23-3.23-3.23h-6.26Z"/>
    </g>
  </g>
</svg>